<svg xmlns="http://www.w3.org/2000/svg" xml:space="preserve" width="174mm" height="164mm" style="shape-rendering:geometricPrecision; text-rendering:geometricPrecision; image-rendering:optimizeQuality; fill-rule:evenodd; clip-rule:evenodd"
viewBox="0 0 174 164">
 <defs>
  <style type="text/css">
   <![CDATA[
    .str1 {stroke:#44916C;stroke-width:0.0762}
    .str3 {stroke:#5F3A74;stroke-width:0.0762}
    .str2 {stroke:#5F3A74;stroke-width:1.2}
    .str0 {stroke:#5F3A74;stroke-width:2}
    .fil6 {fill:none}
    .fil1 {fill:#44916C}
    .fil3 {fill:#5F3A74}
    .fil5 {fill:#6D609E}
    .fil0 {fill:#B6DDC7}
    .fil4 {fill:#FFF974}
    .fil2 {fill:white}
   ]]>
  </style>
 </defs>
 <g id="Слой_x0020_1">
  <metadata id="CorelCorpID_0Corel-Layer"/>
  <rect id="noutbuk" class="fil0 str0" x="36.8786" y="94.3337" width="100.861" height="65.6352" rx="4.9433" ry="4.9433"/>
  <circle id="logo" class="fil1 str1" cx="87.309" cy="127.151" r="8"/>
  <path id="glaza" class="fil2 str2" d="M66.6056 37.9781c8.6846,0 16.2604,4.5677 20.2719,11.3397 4.0741,-6.5329 11.5108,-10.9068 20.0087,-10.9068 12.8735,0 23.3133,10.0366 23.3133,22.4127 0,12.3762 -10.4398,22.4128 -23.3133,22.4128 -8.6843,0 -16.2607,-4.5682 -20.2722,-11.3401 -4.0741,6.533 -11.5103,10.9072 -20.0084,10.9072 -12.8733,0 -23.313,-10.0365 -23.313,-22.4129 0,-12.3761 10.4397,-22.4126 23.313,-22.4126z"/>
  <circle id="zrachok-l" class="fil3 str3" cx="65.1684" cy="59.8509" r="3"/>
  <circle id="zrachok-r" class="fil3 str3" cx="107.212" cy="59.8509" r="3"/>
  <path id="shapka" class="fil4 str2" d="M60.3048 13.0555l25.6132 -10.7951c0.1438,-0.0606 0.379,-0.0606 0.5228,0l25.6132 10.7951c0.1437,0.0606 0.1437,0.1598 0,0.2204l-25.6132 10.7951c-0.1438,0.0606 -0.379,0.0606 -0.5228,0l-25.6132 -10.7951c-0.1437,-0.0606 -0.1437,-0.1598 0,-0.2204zm43.8434 3.5524l0 19.1063c-4.6278,-2.1502 -11.0575,-3.4832 -18.167,-3.4832 -6.4524,0 -12.3454,1.0978 -16.8394,2.9081l0 -18.1387 16.7762 7.0706c0.1438,0.0606 0.379,0.0606 0.5228,0l17.7074 -7.4631z"/>
  <path id="kistochka" class="fil4 str2" d="M112.574 23.471l-0.5202 -10.4155m0.5202 10.4155l-4.5423 9.8777 9.0125 0.0721 -4.4702 -9.9498z"/>
  <path id="uho-r" class="fil5 str2" d="M119.011 41.6786l-0.0473 -0.0549 17.3586 -7.3609 -7.7144 18.4089c-1.8681,-4.5955 -5.2681,-8.4535 -9.5969,-10.9931z"/>
  <path id="uho-l" class="fil5 str2" d="M54.2253 41.5098l0.0473 -0.0549 -17.3586 -7.3609 7.7144 18.4089c1.8681,-4.5955 5.2681,-8.4535 9.5969,-10.9931z"/>
  <path id="lob" class="fil5 str2" d="M85.9812 32.231c9.7915,0 18.2954,2.5284 22.5752,6.2377 -0.5519,-0.0376 -1.1084,-0.0577 -1.6702,-0.0577 -8.4979,0 -15.9346,4.3739 -20.0087,10.9068 -4.0115,-6.772 -11.5873,-11.3397 -20.2719,-11.3397 -0.9502,0 -1.8864,0.056 -2.8068,0.1622 4.3941,-3.5295 12.6824,-5.9093 22.1824,-5.9093z"/>
  <path id="kluv" class="fil4 str2" d="M94.233 79.6487l-6.8536 6.8536 -7.6124 -7.6124c2.7724,-1.8272 5.1141,-4.2147 6.847,-6.9935 1.857,3.1348 4.478,5.7965 7.619,7.7523z"/>
  <path id="sheia" class="fil5 str2" d="M129.964 64.0049l0.255 0 0 30.3288 -86.292 0 0 -28.7335c2.4436,9.8645 11.6706,17.2034 22.6782,17.2034 8.4981,0 15.9343,-4.3742 20.0084,-10.9072 4.0115,6.7719 11.5879,11.3401 20.2722,11.3401 11.75,0 21.4707,-8.3617 23.0782,-19.2316zm-35.7314 15.6438l-6.8536 6.8536 -7.6124 -7.6124c2.7724,-1.8272 5.1141,-4.2147 6.847,-6.9935 1.857,3.1348 4.478,5.7965 7.619,7.7523z"/>
  <path id="krilo-r" class="fil5 str2" d="M137.739 123.622c20.555,-2.0887 37.7916,-29.7308 23.3844,-49.853 -0.0055,3.2975 -0.1984,6.3641 -0.5644,9.2161 -0.0725,4.4987 -1.3825,9.1695 -3.68,13.5177 -3.9851,8.6721 -10.6082,14.0915 -19.14,17.1713l0 9.9479zm-1.06 -27.4027c4.8205,-1.6457 8.8903,-3.7803 12.2108,-6.481 4.1508,-3.3759 7.1296,-7.6363 8.935,-12.9326 0.3356,-0.9847 0.6309,-2.0054 0.8854,-3.0627 6.2788,13.6714 -4.0502,33.5587 -20.9712,39.7145l0 -7.724 0 -0.6574 0 -5.8201c0,-1.1434 -0.3969,-2.1987 -1.06,-3.0367z"/>
  <path id="krilo-l" class="fil5 str2" d="M37.0758 123.539c-20.555,-2.0887 -37.7916,-29.7308 -23.3844,-49.853 0.0055,3.2975 0.1984,6.3641 0.5644,9.2161 0.0725,4.4987 1.3825,9.1695 3.68,13.5177 3.9851,8.6721 10.6082,14.0915 19.14,17.1713l0 9.9479zm1.06 -27.4027c-4.8205,-1.6457 -8.8903,-3.7803 -12.2108,-6.481 -4.1508,-3.3759 -7.1296,-7.6363 -8.935,-12.9326 -0.3356,-0.9847 -0.6309,-2.0054 -0.8854,-3.0627 -6.2788,13.6714 4.0502,33.5587 20.9712,39.7145l0 -7.724 0 -0.6574 0 -5.8201c0,-1.1434 0.3969,-2.1987 1.06,-3.0367z"/>
  <line id="stol" class="fil6 str2" x1="9.3586" y1="160.519" x2="163.746" y2= "160.657" />
  <path id="noga-r" class="fil6 str2" d="M165.397 142.081c-8.3249,0.0112 -13.508,6.4447 -13.7603,18.5652m19.8147 -28.1972c-13.5306,-0.4587 -20.0894,8.4393 -19.6768,26.6944m-14.0352 -9.7696l14.448 4.9536"/>
  <path id="noga-l" class="fil6 str2" d="M8.189 141.613c8.3249,0.0112 13.508,6.4447 13.7603,18.5652m-19.8147 -28.1972c13.5306,-0.4587 20.0894,8.4393 19.6768,26.6944m14.0352 -9.7696l-14.448 4.9536"/>
 </g>
</svg>
